<?xml version="1.0" encoding="UTF-8"?>
<svg width="616px" height="210px" viewBox="0 0 616 210" version="1.1" xmlns="http://www.w3.org/2000/svg" xmlns:xlink="http://www.w3.org/1999/xlink">
    <!-- Generator: Sketch 50.2 (55047) - http://www.bohemiancoding.com/sketch -->
    <title>Artboard</title>
    <desc>Created with Sketch.</desc>
    <defs>
        <filter x="-3.5%" y="-2.5%" width="106.9%" height="106.9%" filterUnits="objectBoundingBox" id="filter-1">
            <feOffset dx="0" dy="2" in="SourceAlpha" result="shadowOffsetOuter1"></feOffset>
            <feGaussianBlur stdDeviation="2" in="shadowOffsetOuter1" result="shadowBlurOuter1"></feGaussianBlur>
            <feColorMatrix values="0 0 0 0 0   0 0 0 0 0   0 0 0 0 0  0 0 0 0.5 0" type="matrix" in="shadowBlurOuter1" result="shadowMatrixOuter1"></feColorMatrix>
            <feMerge>
                <feMergeNode in="shadowMatrixOuter1"></feMergeNode>
                <feMergeNode in="SourceGraphic"></feMergeNode>
            </feMerge>
        </filter>
    </defs>
    <g id="Page-1" stroke="none" stroke-width="1" fill="none" fill-rule="evenodd">
        <g id="Artboard" transform="translate(-43.000000, -247.000000)" fill="#FFFFFF">
            <text id="Spokes" font-family="Montserrat-Black, Montserrat" font-size="96" font-weight="700" letter-spacing="3.33333325">
                <tspan x="279.044445" y="377">Spoke</tspan>
                <tspan x="607.519111" y="377" letter-spacing="4.44444418">s</tspan>
            </text>
            <g id="wheel" filter="url(#filter-1)" transform="translate(47.000000, 249.000000)" fill-rule="nonzero">
                <path d="M172.418047,29.5819531 C153.341277,10.5059727 127.978047,0 101,0 C74.0219531,0 48.6587227,10.5059727 29.5819531,29.5819531 C10.5059727,48.6587227 0,74.0219531 0,101 C0,127.978047 10.5059727,153.341277 29.5819531,172.418047 C48.6587227,191.494027 74.0219531,202 101,202 C127.978047,202 153.341277,191.494027 172.418047,172.418047 C191.494027,153.341277 202,127.978047 202,101 C202,74.0219531 191.494027,48.6587227 172.418047,29.5819531 Z M164.048461,164.048461 C147.2075,180.889422 124.816668,190.164062 101,190.164062 C77.183332,190.164062 54.7925,180.889422 37.9515391,164.048461 C21.1105781,147.2075 11.8359375,124.816668 11.8359375,101 C11.8359375,77.183332 21.1105781,54.7925 37.9515391,37.9515391 C54.7925,21.1105781 77.183332,11.8359375 101,11.8359375 C124.816668,11.8359375 147.2075,21.1105781 164.048461,37.9515391 C180.889422,54.7925 190.164062,77.183332 190.164062,101 C190.164062,124.816668 180.889422,147.2075 164.048461,164.048461 Z" id="Shape"></path>
                <path d="M100.5,23 C57.7662628,23 23,57.7662628 23,100.5 C23,143.233737 57.7662628,178 100.5,178 C143.233737,178 178,143.233737 178,100.5 C178,57.7662628 143.233737,23 100.5,23 Z M165.867296,94.5688776 L119.982551,94.5688776 C119.59426,93.2960587 119.084184,92.0758291 118.466556,90.9216327 L150.89477,58.4934184 C159.214554,68.4580995 164.638367,80.9174107 165.867296,94.5688776 Z M106.431122,35.1330995 C120.082589,36.3616327 132.542296,41.7854464 142.506582,50.105625 L110.078367,82.5338393 C108.924171,81.9158163 107.703941,81.4061352 106.431122,81.0178444 L106.431122,35.1330995 Z M94.5688776,35.1330995 L94.5688776,81.0178444 C93.2960587,81.4061352 92.0758291,81.9158163 90.9216327,82.5338393 L58.4934184,50.105625 C68.4580995,41.7854464 80.9174107,36.3620281 94.5688776,35.1330995 Z M50.105625,58.4934184 L82.5338393,90.9216327 C81.9158163,92.0758291 81.4061352,93.2960587 81.0178444,94.5688776 L35.1330995,94.5688776 C36.3616327,80.9174107 41.7854464,68.4577041 50.105625,58.4934184 Z M35.1330995,106.431122 L81.017449,106.431122 C81.4057398,107.703941 81.9158163,108.924171 82.5334439,110.078367 L50.1052296,142.506582 C41.7854464,132.542296 36.3616327,120.082589 35.1330995,106.431122 Z M94.5688776,165.866505 C80.9174107,164.637972 68.4577041,159.214158 58.4934184,150.89398 L90.9216327,118.466161 C92.0758291,119.084184 93.2960587,119.593865 94.5688776,119.982156 L94.5688776,165.866505 Z M91.996352,100.5 C91.996352,95.8108546 95.8108546,91.996352 100.5,91.996352 C105.189145,91.996352 109.003648,95.8108546 109.003648,100.5 C109.003648,105.189145 105.18875,109.003648 100.5,109.003648 C95.81125,109.003648 91.996352,105.189145 91.996352,100.5 Z M106.431122,165.866901 L106.431122,119.982156 C107.703941,119.593865 108.924171,119.084184 110.078367,118.466161 L142.506582,150.894375 C132.541901,159.214554 120.082589,164.637972 106.431122,165.866901 Z M150.89398,142.506582 L118.466161,110.078367 C119.084184,108.924171 119.593865,107.703941 119.982156,106.431122 L165.866505,106.431122 C164.637972,120.082589 159.214158,132.542296 150.89398,142.506582 Z" id="Shape"></path>
            </g>
        </g>
    </g>
</svg>